<svg width="16" height="16" viewBox="0 0 16 16" xmlns="http://www.w3.org/2000/svg">
<path d="M10.297 2.79828H2.85891C2.16098 2.79828 1.59412 3.36514 1.59412 4.06308V14.7352C1.59412 15.4331 2.16098 16 2.85891 16H10.297C10.9949 16 11.5618 15.4331 11.5618 14.7352V4.06308C11.5585 3.36514 10.9916 2.79828 10.297 2.79828ZM10.6738 14.7319C10.6738 14.9416 10.5034 15.112 10.2937 15.112H2.85564C2.64593 15.112 2.47554 14.9416 2.47554 14.7319V4.06308C2.47554 3.85337 2.64593 3.68298 2.85564 3.68298H10.2937C10.5034 3.68298 10.6738 3.85337 10.6738 4.06308V14.7319Z" fill="black"/>
<path d="M13.1411 0H5.70303C5.0051 0 4.43823 0.566865 4.43823 1.2648C4.43823 1.51055 4.63483 1.70715 4.88058 1.70715C5.12633 1.70715 5.32293 1.51055 5.32293 1.2648C5.32293 1.05509 5.49332 0.884702 5.70303 0.884702H13.1411C13.3508 0.884702 13.5212 1.05509 13.5212 1.2648V11.9369C13.5212 12.1466 13.3508 12.317 13.1411 12.317C12.8953 12.317 12.6987 12.5136 12.6987 12.7594C12.6987 13.0051 12.8953 13.2017 13.1411 13.2017C13.839 13.2017 14.4059 12.6349 14.4059 11.9369V1.2648C14.4059 0.566865 13.839 0 13.1411 0Z" fill="black"/>
</svg>
