<svg width="22" height="24" viewBox="0 0 22 24" fill="none" xmlns="http://www.w3.org/2000/svg">
<path d="M7.72729 6.33151L6.50001 4.20581L5.10529 8.79008L9.77274 9.87434L8.54547 7.74864C11.0537 6.30052 14.1926 7.02968 15.5466 9.37504C15.9598 10.0907 16.1631 10.8803 16.1617 11.6653L17.8653 12.061C17.9532 10.8482 17.7045 9.61249 17.0622 8.50004C15.254 5.36818 11.0766 4.39776 7.72729 6.33151ZM13.4546 16.2514C10.9463 17.6996 7.80747 16.9704 6.45338 14.625C6.0402 13.9094 5.83691 13.1198 5.83837 12.3348L4.13475 11.939C4.04687 13.1518 4.29556 14.3876 4.93784 15.5C6.74602 18.6319 10.9234 19.6023 14.2727 17.6686L15.5 19.7943L16.8947 15.21L12.2273 14.1257L13.4546 16.2514Z" fill="#646464"/>
</svg>
